# xmcd
#
# Track frame offsets: 
#        150
#        15594
#        31938
#        50510
#        63975
#        78730
#        97570
#        115364
#        133989
#        150396
#        168358
#        184415
#
# Disc length: 2646 seconds
#
# Revision: 2
# Processed by: cddbd v1.5.2PL0 Copyright (c) Steve Scherf et al.
# Submitted via: ExactAudioCopy v1.3
#
DISCID=950a540c
DTITLE=태연 - Purpose
DYEAR=2019
DGENRE=Kpop
TTITLE0=Here I Am
TTITLE1=불티 (Spark)
TTITLE2=Find Me
TTITLE3=Love You Like Crazy
TTITLE4=하하하 (LOL)
TTITLE5=Better Babe
TTITLE6=Wine
TTITLE7=Do You Love Me?
TTITLE8=City Love
TTITLE9=Gravity
TTITLE10=Blue
TTITLE11=사계 (Four Seasons)
EXTD=
EXTT0=
EXTT1=
EXTT2=
EXTT3=
EXTT4=
EXTT5=
EXTT6=
EXTT7=
EXTT8=
EXTT9=
EXTT10=
EXTT11=
PLAYORDER=
